<?xml version="1.0" standalone="no"?>
<!DOCTYPE svg PUBLIC "-//W3C//DTD SVG 20010904//EN"
 "http://www.w3.org/TR/2001/REC-SVG-20010904/DTD/svg10.dtd">
<svg version="1.0" xmlns="http://www.w3.org/2000/svg"
 width="1085.000000pt" height="1085.000000pt" viewBox="0 0 1085.000000 1085.000000"
 preserveAspectRatio="xMidYMid meet">
<metadata>
Created by potrace 1.14, written by Peter Selinger 2001-2017
</metadata>
<g transform="translate(0.000000,1085.000000) scale(0.100000,-0.100000)"
fill="#000000" stroke="none">
<path d="M5129 10846 c-2 -2 -49 -6 -104 -10 -55 -3 -113 -8 -130 -10 -16 -2
-61 -7 -100 -10 -38 -4 -95 -11 -125 -16 -30 -5 -75 -12 -100 -15 -371 -51
-907 -208 -1315 -385 -751 -327 -1441 -842 -1982 -1480 -177 -209 -407 -535
-533 -754 -10 -17 -34 -60 -55 -96 -51 -89 -192 -374 -242 -490 -186 -433
-325 -922 -388 -1370 -22 -158 -23 -166 -30 -240 -33 -341 -29 -879 9 -1175
13 -102 17 -132 27 -195 134 -878 482 -1706 1021 -2427 282 -378 638 -741
1018 -1037 152 -119 447 -316 630 -422 616 -356 1351 -598 2065 -679 33 -4 74
-9 90 -11 192 -22 824 -26 1025 -5 709 71 1309 240 1910 537 744 368 1383 890
1905 1559 92 117 329 469 408 607 79 136 271 532 330 683 138 347 255 760 306
1075 6 36 13 74 15 85 3 20 14 92 21 150 2 17 6 46 9 65 22 165 30 327 31 620
0 338 -8 507 -30 655 -3 17 -7 55 -11 85 -12 111 -51 331 -89 500 -44 196
-147 536 -218 720 -85 220 -245 559 -343 730 -261 453 -530 806 -884 1160
-179 180 -225 222 -381 351 -702 582 -1522 972 -2414 1148 -180 35 -190 37
-410 66 -16 2 -61 6 -100 10 -38 4 -86 9 -105 12 -43 6 -725 15 -731 9z"/>
</g>
</svg>
