<?xml version="1.0" standalone="no"?>
<!DOCTYPE svg PUBLIC "-//W3C//DTD SVG 20010904//EN"
 "http://www.w3.org/TR/2001/REC-SVG-20010904/DTD/svg10.dtd">
<svg version="1.0" xmlns="http://www.w3.org/2000/svg"
 width="1032.000000pt" height="1032.000000pt" viewBox="0 0 1032.000000 1032.000000"
 preserveAspectRatio="xMidYMid meet">
<metadata>
Created by potrace 1.14, written by Peter Selinger 2001-2017
</metadata>
<g transform="translate(0.000000,1032.000000) scale(0.100000,-0.100000)"
fill="#000000" stroke="none">
<path d="M4950 9144 c-93 -11 -257 -38 -480 -80 -208 -38 -279 -57 -474 -121
-190 -63 -268 -96 -456 -188 -347 -172 -477 -260 -537 -362 -14 -24 -40 -82
-59 -130 -39 -99 -43 -104 -144 -186 -134 -108 -226 -196 -360 -342 -311 -340
-480 -607 -687 -1085 -25 -58 -85 -188 -134 -290 -64 -135 -95 -213 -114 -290
-41 -168 -45 -174 -173 -300 -134 -131 -202 -215 -238 -295 -42 -91 -67 -388
-68 -795 -1 -362 0 -373 65 -500 39 -76 133 -191 197 -243 76 -60 188 -111
349 -158 77 -22 91 -34 180 -152 23 -31 59 -65 80 -76 56 -28 150 -44 240 -40
69 4 87 8 132 37 43 26 62 32 109 32 l57 0 73 -149 c87 -177 201 -352 386
-590 75 -96 136 -178 136 -181 0 -4 -25 -38 -56 -76 -181 -220 -248 -366 -266
-579 -18 -218 -13 -204 -168 -409 -76 -101 -165 -224 -198 -274 -63 -96 -182
-321 -182 -344 1 -13 16 -26 71 -62 l27 -17 49 103 c104 218 331 529 572 783
79 84 513 495 535 507 12 7 46 -9 123 -54 438 -253 578 -312 978 -408 276 -66
389 -80 643 -80 350 0 588 28 850 100 198 54 309 95 512 191 127 59 159 70
262 87 67 11 140 31 173 46 l57 26 57 -49 c72 -64 407 -404 492 -501 178 -202
337 -433 434 -626 33 -66 61 -121 62 -123 4 -6 103 63 103 72 0 16 -95 195
-157 295 -67 108 -126 190 -267 367 -110 138 -115 152 -125 342 -9 156 -10
160 -56 276 -25 65 -49 140 -52 167 l-6 50 49 21 c27 12 107 43 177 70 277
105 403 180 568 336 188 179 298 330 349 479 11 31 29 104 40 163 42 221 44
223 196 299 167 84 312 229 372 375 17 40 42 113 56 161 31 106 34 228 11 461
-8 83 -15 194 -15 247 0 133 -16 236 -54 350 -47 140 -84 195 -219 322 -109
102 -123 119 -163 201 -24 50 -71 174 -105 275 -169 513 -455 1007 -856 1482
-40 47 -144 154 -231 237 l-159 152 -7 84 c-11 147 -59 238 -176 329 -59 47
-216 134 -460 256 -175 88 -573 233 -711 259 -603 116 -579 113 -894 116 -154
2 -296 1 -315 -1z m565 -154 c562 -53 1047 -201 1564 -478 164 -88 226 -138
260 -211 24 -50 24 -51 7 -118 -9 -37 -52 -140 -95 -230 -61 -124 -92 -176
-131 -217 l-51 -54 -77 45 c-123 74 -486 248 -617 296 -303 112 -630 181 -990
207 -269 20 -574 -9 -905 -86 -301 -71 -428 -120 -841 -326 -151 -75 -263
-126 -273 -122 -22 8 -79 81 -109 139 -33 63 -145 308 -162 356 -21 56 -3 110
59 173 58 60 131 104 360 220 437 221 891 352 1406 405 122 12 466 13 595 1z
m-100 -925 c66 -8 181 -21 256 -29 281 -31 640 -146 966 -310 338 -169 411
-183 628 -121 29 8 119 -76 314 -295 200 -225 293 -348 410 -545 93 -156 281
-528 281 -556 0 -38 -113 -68 -252 -69 l-96 0 -35 48 c-19 26 -62 94 -97 152
-157 263 -481 637 -710 819 -236 188 -539 364 -827 480 -289 117 -648 181
-1010 181 -195 0 -302 -10 -523 -51 -449 -83 -740 -188 -1068 -386 -240 -145
-719 -579 -863 -783 -37 -51 -121 -185 -188 -296 -116 -194 -123 -203 -149
-199 -15 3 -81 14 -147 25 -66 11 -144 30 -173 42 -51 20 -53 22 -47 52 12 61
48 162 82 230 81 162 345 576 461 722 113 143 387 430 438 460 55 32 82 29
167 -23 59 -37 63 -38 156 -38 90 0 100 2 156 33 217 119 581 265 933 376 264
83 650 116 937 81z m-2390 -139 c14 -54 25 -114 25 -132 0 -29 -4 -35 -27 -40
-16 -3 -36 -8 -46 -11 -22 -6 -273 -261 -373 -378 -91 -108 -233 -299 -310
-417 -121 -186 -223 -391 -382 -763 -33 -77 -75 -167 -94 -200 l-34 -60 -88
-5 c-59 -3 -90 -1 -93 6 -5 14 88 280 157 449 76 184 240 505 345 673 224 358
534 715 814 940 36 29 69 48 73 44 5 -5 19 -52 33 -106z m4458 -5 c47 -32 312
-300 399 -401 260 -305 465 -642 658 -1080 69 -155 193 -511 182 -521 -4 -3
-47 -4 -95 -1 l-88 4 -64 128 c-36 71 -96 209 -135 307 -91 229 -146 336 -283
556 -136 216 -221 332 -303 412 -34 33 -68 74 -75 91 -13 30 -147 162 -249
246 l-45 37 0 88 c1 89 21 163 45 163 6 0 30 -13 53 -29z m-2003 -261 c731
-64 1474 -445 1904 -978 32 -40 57 -74 55 -77 -2 -2 -54 30 -114 71 -338 230
-833 410 -1340 488 -232 36 -296 39 -715 40 -550 1 -720 -16 -1116 -114 -375
-93 -645 -200 -946 -377 -126 -74 -225 -119 -236 -108 -3 3 6 18 19 33 179
198 305 317 461 438 441 339 993 549 1548 587 109 8 375 6 480 -3z m225 -616
c776 -70 1422 -330 1884 -760 81 -75 225 -243 217 -251 -3 -3 -57 44 -120 105
-414 397 -999 643 -1756 737 -290 36 -819 42 -1155 14 -318 -27 -692 -100
-972 -190 -516 -167 -905 -418 -1217 -784 -45 -54 -30 -2 24 78 60 90 295 320
438 430 563 431 1381 660 2287 640 116 -2 282 -11 370 -19z m-515 -624 c0 -19
-88 -67 -182 -100 -604 -210 -1148 -613 -1452 -1074 -150 -227 -401 -826 -525
-1252 -28 -93 -59 -190 -69 -215 l-19 -44 -11 40 c-111 414 -158 804 -133
1090 38 418 175 731 408 932 270 232 746 450 1193 547 149 32 357 69 450 79
82 9 340 7 340 -3z m3083 -392 c38 -15 92 -81 112 -137 19 -51 30 -225 65
-1026 6 -132 13 -247 16 -255 3 -8 10 -190 14 -405 7 -322 6 -395 -5 -422 -19
-44 -109 -131 -160 -154 -113 -52 -234 12 -303 160 -24 52 -26 69 -38 345 -25
558 -47 1686 -35 1741 13 57 56 117 104 142 56 30 166 35 230 11z m-5981 0
c30 -25 108 -140 118 -176 14 -51 12 -196 -5 -457 -8 -121 -15 -278 -15 -350
0 -71 -9 -299 -20 -505 -11 -206 -25 -457 -30 -557 -10 -198 -18 -227 -70
-287 -120 -136 -310 -102 -387 70 -16 35 -18 73 -16 407 1 203 7 439 13 525 5
87 14 353 20 592 11 482 13 522 42 597 22 59 90 127 142 142 48 14 190 13 208
-1z m6413 -268 c93 -13 182 -58 259 -131 64 -60 123 -135 114 -145 -10 -9 -73
22 -149 74 -87 59 -119 69 -256 78 l-103 7 0 63 0 64 33 0 c17 0 64 -5 102
-10z m-6959 -35 c7 -19 14 -39 14 -45 0 -6 -26 -10 -62 -10 -144 0 -215 -24
-333 -113 -119 -91 -110 -85 -95 -57 25 47 165 175 223 204 60 30 147 53 205
55 29 1 35 -4 48 -34z m5615 -315 c67 -35 96 -60 134 -115 73 -105 103 -244
85 -390 -30 -241 -122 -405 -267 -477 -132 -65 -260 -44 -360 58 -91 94 -137
222 -136 379 1 254 144 485 345 557 65 23 138 19 199 -12z m-501 -1328 c49
-24 97 -99 105 -166 19 -149 -93 -296 -225 -296 -64 0 -135 47 -167 110 -62
123 1 300 127 354 47 20 117 20 160 -2z m1720 -557 c-21 -126 -87 -247 -220
-398 -172 -196 -271 -273 -485 -377 -183 -89 -364 -151 -459 -158 l-79 -5 33
49 c18 27 97 132 175 234 255 334 323 437 381 570 39 90 35 88 204 65 165 -22
185 -17 355 90 l90 56 6 -38 c4 -21 3 -60 -1 -88z m-1746 -831 c39 -10 67 -23
72 -33 4 -9 9 -68 11 -131 4 -95 1 -124 -15 -170 -19 -55 -19 -55 -68 -62 -27
-3 -183 -8 -347 -11 l-299 -4 -53 35 -52 35 -7 91 c-11 154 12 232 77 262 46
21 587 12 681 -12z m-3643 -200 c18 -20 49 -44 68 -53 l34 -18 -100 -109 c-56
-60 -156 -163 -223 -229 l-122 -120 5 67 c17 191 107 367 235 459 31 21 58 39
62 39 3 0 22 -16 41 -36z m608 -143 c51 -23 134 -53 184 -67 51 -14 130 -37
177 -51 47 -13 128 -37 180 -53 110 -32 197 -44 475 -66 335 -25 611 -18 900
23 123 18 358 28 410 19 30 -6 33 -10 37 -49 3 -23 2 -45 -1 -49 -11 -13 -216
-67 -366 -97 -321 -64 -641 -81 -890 -47 -219 31 -464 77 -541 102 -146 47
-419 164 -518 222 -116 67 -341 206 -356 219 -21 19 200 -57 309 -106z m3556
0 c92 -140 171 -334 149 -369 -24 -38 -49 -26 -130 64 -44 49 -125 136 -181
194 -149 154 -144 173 54 178 l61 2 47 -69z"/>
<path d="M6834 1590 c4 -30 25 -133 47 -229 38 -165 58 -283 59 -342 0 -26 -2
-27 -77 -34 -43 -3 -107 -13 -143 -21 -109 -24 -338 -104 -475 -165 -71 -31
-156 -62 -188 -68 -39 -7 -363 -11 -943 -11 l-885 -1 -92 50 c-57 31 -171 76
-302 120 -199 67 -260 81 -417 99 l-66 7 59 235 c63 248 87 412 57 394 -25
-16 -84 -87 -116 -141 -32 -54 -111 -286 -138 -404 l-15 -67 -57 -6 c-83 -10
-221 -45 -267 -69 -46 -23 -115 -76 -115 -89 0 -4 33 -8 73 -8 l72 -1 -41 -37
c-22 -20 -69 -68 -103 -106 l-63 -70 46 -23 46 -23 88 88 c109 109 196 168
259 178 71 10 328 -2 415 -20 122 -26 456 -143 548 -193 255 -137 451 -309
580 -510 l65 -101 68 -7 c38 -4 70 -5 73 -3 2 3 -17 47 -43 99 l-48 94 0 185
0 185 335 9 c184 4 422 5 529 1 l194 -7 -44 -36 c-146 -118 -280 -295 -350
-464 l-29 -70 78 7 c42 4 77 8 77 9 0 16 92 171 135 227 216 283 702 525 1185
590 94 12 189 23 212 22 86 -1 261 -114 365 -234 l44 -51 50 25 49 25 -106
105 -107 105 70 7 c66 7 68 8 53 25 -21 24 -121 76 -187 99 -29 10 -96 26
-150 36 l-96 18 -22 96 c-51 222 -139 420 -221 497 l-32 29 7 -55z m-2134
-1125 c0 -111 -7 -136 -29 -98 -5 9 -53 61 -107 115 l-98 98 117 0 117 0 0
-115z"/>
</g>
</svg>
